<?xml version="1.0" encoding="UTF-8"?>
<svg version="1.1" xmlns="http://www.w3.org/2000/svg" width="1024" height="1024">
<path d="M0 0 C337.92 0 675.84 0 1024 0 C1024 337.92 1024 675.84 1024 1024 C686.08 1024 348.16 1024 0 1024 C0 686.08 0 348.16 0 0 Z " fill="#106FD4" transform="translate(0,0)"/>
<path d="M0 0 C0.84715206 -0.00508782 1.69430413 -0.01017564 2.56712747 -0.01541764 C5.41049303 -0.03113442 8.2538332 -0.03966511 11.097229 -0.04811096 C13.13407553 -0.05764991 15.17092044 -0.0675411 17.20776367 -0.07775879 C23.90039143 -0.10913443 30.59303159 -0.12940725 37.28570557 -0.14796448 C38.99367168 -0.15291046 38.99367168 -0.15291046 40.73614216 -0.15795636 C51.47403532 -0.18873277 62.21193129 -0.21544012 72.9498558 -0.23237514 C86.68469392 -0.254291 100.4191416 -0.29628732 114.15382361 -0.36581272 C123.81169668 -0.41304209 133.46946434 -0.43730717 143.12744927 -0.44457203 C148.8958212 -0.44952914 154.66375294 -0.46461677 160.43199921 -0.50431633 C165.85924359 -0.54117762 171.28579625 -0.54959373 176.7131424 -0.5363102 C178.70293444 -0.53636415 180.69275711 -0.54666241 182.68243408 -0.56806183 C199.5937938 -0.7401979 199.5937938 -0.7401979 204.74247742 3.03738403 C206.34603024 4.61199474 206.34603024 4.61199474 207.67633057 6.16062927 C209.10199341 7.4817572 209.10199341 7.4817572 210.55645752 8.82957458 C211.41714844 9.70710388 212.27783936 10.58463318 213.16461182 11.48875427 C213.6344902 11.96383423 214.10436859 12.43891418 214.58848572 12.9283905 C216.06024033 14.41766874 217.52498743 15.91357758 218.98883057 17.41062927 C220.47146114 18.92098834 221.95560094 20.42978813 223.44273376 21.93571472 C224.77957428 23.29025627 226.11151922 24.64962431 227.44317627 26.00926208 C229.67908733 28.29087378 229.67908733 28.29087378 232.67633057 30.16062927 C232.67633057 30.82062927 232.67633057 31.48062927 232.67633057 32.16062927 C123.28133057 32.65562927 123.28133057 32.65562927 11.67633057 33.16062927 C23.64092167 43.52994157 35.59477329 53.86781424 47.87554932 63.85594177 C50.94409051 66.38096172 53.96666211 68.9555526 56.98883057 71.53562927 C61.46933015 75.35472178 66.02867565 79.04707435 70.67633057 82.66062927 C76.44111797 87.14275547 82.03248325 91.79614502 87.58648682 96.53562927 C92.2205981 100.48668209 96.95228362 104.31803715 101.67633057 108.16062927 C104.42986704 110.41209641 107.18200044 112.66527118 109.93414307 114.91844177 C111.73957468 116.39467788 113.54682198 117.86869663 115.35601807 119.34031677 C120.28140554 123.35200918 125.15704425 127.41235008 129.98883057 131.53562927 C134.42493865 135.31843878 138.94223318 138.9660855 143.55133057 142.53562927 C149.23390052 146.94019471 154.66686041 151.57869039 160.06817627 156.32200623 C164.74388487 160.4068186 169.55757577 164.2635397 174.46832275 168.06028748 C179.34840634 171.85276623 184.03455708 175.84361854 188.70562744 179.8891449 C192.76923104 183.40299378 196.91665027 186.78440943 201.13336182 190.11375427 C204.11233143 192.51157313 207.01946149 194.98907752 209.92633057 197.47312927 C215.06611043 201.85665556 220.30523681 206.090524 225.64483643 210.22825623 C228.29657352 212.28328745 230.90488049 214.35428852 233.46539307 216.52391052 C241.43971894 223.27616478 248.11148296 225.86115419 258.64508057 225.48875427 C270.32502 224.22443093 278.05031799 217.47829563 286.67633057 210.16062927 C287.80763198 209.21116143 288.93913836 208.26193777 290.07086182 207.31297302 C292.25001326 205.4789288 294.42075704 203.63549589 296.58648682 201.78562927 C302.09373556 197.09013767 307.73263738 192.5534559 313.34820557 187.98875427 C318.27512014 183.9731765 323.15421151 179.9112193 327.98883057 175.78562927 C332.44717204 171.98473908 336.98551751 168.31475185 341.61383057 164.72312927 C347.09563947 160.46645049 352.3946747 156.0360446 357.64361572 151.49632263 C361.92326077 147.79612547 366.26591653 144.18565459 370.65679932 140.61766052 C374.38419579 137.58463027 378.09315285 134.52960469 381.80133057 131.47312927 C386.22853347 127.8242596 390.65617946 124.17597878 395.09039307 120.53562927 C401.63425252 115.16049945 408.16358337 109.7729522 414.61383057 104.28562927 C418.95770978 100.59069929 423.36144871 96.98660463 427.82867432 93.44187927 C437.3943764 85.77882026 446.81404669 77.93126535 456.14874268 69.98899841 C459.41672217 67.21236744 462.71960662 64.48530558 466.05133057 61.78562927 C471.04399501 57.72183264 475.91387577 53.52854845 480.75982666 49.29197693 C487.00569182 43.83967948 493.34338405 38.51927633 499.67633057 33.16062927 C418.99133057 32.66562927 418.99133057 32.66562927 336.67633057 32.16062927 C338.44283578 28.62761884 339.61504349 26.99183066 342.34429932 24.33250427 C343.07326416 23.61449646 343.802229 22.89648865 344.55328369 22.15672302 C345.31576416 21.41551208 346.07824463 20.67430115 346.86383057 19.91062927 C351.82080667 15.06973153 356.62660862 10.22308582 361.06427002 4.89598083 C363.74005649 2.01554918 365.55106738 0.31034971 369.55569458 -0.22248077 C370.67944489 -0.22620949 371.80319519 -0.2299382 372.96099854 -0.23377991 C374.25334915 -0.2451297 375.54569977 -0.25647949 376.87721252 -0.26817322 C378.30764833 -0.26552984 379.73808355 -0.2625586 381.16851807 -0.2592926 C382.67671844 -0.26663323 384.18491318 -0.27521944 385.69309998 -0.28495789 C389.79069524 -0.30719613 393.88808952 -0.31010301 397.98573685 -0.30821037 C401.41209221 -0.30809065 404.83840504 -0.31665648 408.26474857 -0.32498789 C416.35721229 -0.34423446 424.44957288 -0.34710302 432.54205322 -0.34034729 C440.86950203 -0.33372245 449.19650609 -0.35650487 457.52386475 -0.39366102 C464.68588297 -0.42444931 471.84775892 -0.43570769 479.00984192 -0.43182421 C483.28151833 -0.42976417 487.55284953 -0.43511814 491.82446289 -0.4597168 C495.8498751 -0.48212959 499.87457146 -0.47998703 503.89998817 -0.45978928 C505.36883422 -0.45640343 506.83772976 -0.46136246 508.30650902 -0.47577286 C521.65384522 -0.59757311 531.75129595 2.3302216 541.47711182 11.68016052 C547.25185435 18.19341365 550.79664181 24.57031885 550.81055164 33.31873894 C550.81500949 34.61600155 550.81946733 35.91326416 550.82406026 37.24983776 C550.82397096 38.6980374 550.8237811 40.14623703 550.82350159 41.59443665 C550.8268001 43.12631229 550.83052564 44.65818707 550.83464307 46.19006073 C550.84467317 50.41097305 550.8483815 54.63187115 550.85103238 58.85279369 C550.8549326 63.40109551 550.86451133 67.94938604 550.87324524 72.49768066 C550.89302065 83.4895435 550.90307855 94.48140728 550.91197303 105.47328347 C550.91635535 110.64983918 550.92172241 115.82639386 550.9269619 121.00294876 C550.94397747 138.21294632 550.95847048 155.42294324 550.96571064 172.63294792 C550.96762054 177.10050838 550.96954087 181.56806883 550.97149658 186.03562927 C550.97198032 187.14602204 550.97246406 188.25641481 550.97296246 189.40045585 C550.98125832 207.37815802 551.00658628 225.35579355 551.03907726 243.33346663 C551.07216574 261.79237829 551.09016114 280.25125611 551.09335488 298.71019757 C551.09551863 309.07342541 551.10424727 319.43655617 551.12981606 329.7997551 C551.15154771 338.62819674 551.15956144 347.45651773 551.14984927 356.28498308 C551.14531134 360.78685115 551.14716114 365.28847041 551.16661072 369.79030418 C551.18429209 373.91868298 551.18320466 378.04663238 551.16771343 382.17501606 C551.16534483 383.66169415 551.16962177 385.14840236 551.18154208 386.63503455 C551.30868785 403.55161055 546.77901702 415.95407226 535.58258057 428.50828552 C520.96068305 442.66642883 502.6036843 444.32704971 483.32232666 444.27415466 C481.90215049 444.27387203 480.48197418 444.27403202 479.0617981 444.27459717 C475.23605296 444.27488216 471.41033967 444.26903392 467.58460188 444.26202321 C463.57543572 444.25573975 459.56626871 444.25518194 455.55709839 444.2539978 C447.97840744 444.25089914 440.39973104 444.24270562 432.82104647 444.23264831 C424.18736537 444.22144153 415.55368355 444.21596525 406.91999698 444.21095288 C389.17209994 444.20052168 371.42421643 444.18295079 353.67633057 444.16062927 C353.67633057 442.16062927 353.67633057 442.16062927 355.07476807 440.75047302 C356.0531665 439.93256287 356.0531665 439.93256287 357.05133057 439.09812927 C363.18244057 433.8797064 369.16152328 428.50069923 375.06304932 423.02391052 C375.64159668 422.48725769 376.22014404 421.95060486 376.81622314 421.39768982 C377.94927154 420.34499268 379.08069497 419.29054306 380.21026611 418.2341156 C388.22429131 410.78360552 388.22429131 410.78360552 393.30404663 410.79554749 C394.22906479 410.79023514 395.15408295 410.78492279 396.10713196 410.77944946 C397.11497238 410.78873978 398.12281281 410.79803009 399.16119385 410.80760193 C400.22836136 410.80544174 401.29552887 410.80328156 402.39503479 410.80105591 C404.71347208 410.7979672 407.03192569 410.8015799 409.35034561 410.81106949 C413.02493257 410.82479746 416.69897875 410.81837487 420.37356567 410.80622864 C430.82152818 410.77525834 441.26936634 410.78009696 451.71734619 410.80027771 C458.10875423 410.81122011 464.49975755 410.79794758 470.89110947 410.77038193 C473.32225163 410.76495356 475.75343458 410.76897391 478.18454361 410.78277969 C481.59517435 410.80191457 485.00449058 410.79037353 488.4151001 410.77244568 C489.41079514 410.78578445 490.40649017 410.79912323 491.43235779 410.81286621 C499.16417158 410.72296765 505.75363853 408.68924177 511.59523201 403.43450356 C518.96548283 395.73531518 519.10806703 386.93525424 519.03709412 376.82237244 C519.03840377 375.47078123 519.04103313 374.11919077 519.04486161 372.76760435 C519.0515472 369.06866758 519.0396007 365.36999303 519.02452743 361.67108965 C519.01154337 357.67664657 519.0159582 353.68221766 519.01823425 349.6877594 C519.01980549 342.7721101 519.01041193 335.85654587 518.99352074 328.94091797 C518.96911502 318.94215783 518.96132386 308.94343872 518.95755676 298.94465202 C518.95099475 282.72137374 518.93104036 266.49814077 518.90264893 250.27488708 C518.87510189 234.51772793 518.85387146 218.76058109 518.84112549 203.00340271 C518.83994323 201.54591455 518.83994323 201.54591455 518.83873709 200.05898219 C518.83482191 195.18434012 518.83103081 190.30969795 518.82730138 185.43505573 C518.79621326 145.01021539 518.74338425 104.58542493 518.67633057 64.16062927 C516.43101044 65.91795088 514.18659758 67.67641048 511.94268799 69.43553162 C510.99464924 70.17723854 510.99464924 70.17723854 510.02745819 70.93392944 C505.56969992 74.43057015 501.22685158 78.02478532 496.98883057 81.78562927 C490.98870402 87.04469193 484.88163693 92.14436365 478.67633057 97.16062927 C476.84206359 98.65948743 475.00874104 100.15950205 473.17633057 101.66062927 C470.49733137 103.85288073 467.81808849 106.04482395 465.13726807 108.23484802 C462.3150999 110.54118182 459.49490126 112.84990164 456.67633057 115.16062927 C456.03888916 115.68318298 455.40144775 116.20573669 454.74468994 116.74412537 C446.85251559 123.21800128 438.98410595 129.71502272 431.20806885 136.32810974 C427.00947381 139.89394948 422.75045058 143.38037537 418.47711182 146.85594177 C415.40857063 149.38096172 412.38599903 151.9555526 409.36383057 154.53562927 C404.31405006 158.83996599 399.14637023 162.96410432 393.90753174 167.03514099 C389.35718343 170.58641712 384.95165384 174.28316556 380.56866455 178.03782654 C376.70461628 181.33175975 372.75067121 184.48654188 368.73883057 187.59812927 C363.25983184 191.85237477 357.96252031 196.27931218 352.71783447 200.81834412 C348.36165308 204.58667983 343.9297347 208.24904239 339.45758057 211.87937927 C336.31249262 214.45905815 333.21153381 217.08694911 330.11383057 219.72312927 C325.56412424 223.59260501 320.95115134 227.36141932 316.26617432 231.06687927 C313.77606297 233.08000097 311.34019521 235.14330877 308.91046143 237.22825623 C289.80669295 253.59773332 272.30245861 263.08509905 246.67633057 261.16062927 C229.71609834 258.88633618 218.6742851 249.65835193 206.18341064 238.84812927 C202.08019118 235.31338524 197.89227142 231.91797973 193.61383057 228.59812927 C187.86076465 224.13404548 182.28602125 219.49531274 176.74664307 214.77000427 C172.11856646 210.82447537 167.39747968 206.99388393 162.67633057 203.16062927 C161.39114482 202.11639474 160.10599066 201.07212133 158.82086182 200.02781677 C157.43936109 198.90540901 156.05785051 197.78301338 154.67633057 196.66062927 C152.62857356 194.99697619 150.58084089 193.33329329 148.53326416 191.66941833 C146.91066688 190.35103138 145.2876728 189.03313282 143.66461182 187.71531677 C138.76927548 183.72758294 133.92434648 179.6873122 129.11383057 175.59812927 C124.51292486 171.68739309 119.85527402 167.86468583 115.12554932 164.10984802 C108.35676363 158.72288781 101.70418085 153.20103487 95.11383057 147.59812927 C90.63901906 143.79509226 86.10964426 140.07996615 81.50836182 136.43016052 C75.59063678 131.68781811 69.7622419 126.8350097 63.91412354 122.00730896 C60.33721262 119.05555747 56.75664726 116.10824795 53.17633057 113.16062927 C51.75964509 111.99398544 50.34297846 110.82731874 48.92633057 109.66062927 C48.22508057 109.08312927 47.52383057 108.50562927 46.80133057 107.91062927 C44.67633057 106.16062927 42.55133057 104.41062927 40.42633057 102.66062927 C39.7247583 102.08288757 39.02318604 101.50514587 38.300354 100.90989685 C36.88684853 99.74578574 35.47343673 98.58156087 34.06011963 97.41722107 C30.47085486 94.46050423 26.87987235 91.50591724 23.28570557 88.55516052 C15.61000818 82.25000117 7.97069556 75.90893518 0.41070557 69.46531677 C-2.13496909 67.31967671 -4.72011943 65.23528201 -7.32366943 63.16062927 C-7.46107021 104.61418329 -7.56676173 146.06771099 -7.63006141 187.5214477 C-7.63756545 192.41793959 -7.6453314 197.31443103 -7.65325928 202.21092224 C-7.65562007 203.6730972 -7.65562007 203.6730972 -7.65802856 205.16481104 C-7.68412039 220.9383319 -7.73141901 236.71172124 -7.78658621 252.48516414 C-7.84274011 268.67603155 -7.8760316 284.8668302 -7.8882004 301.05779099 C-7.89642387 311.04463634 -7.92237545 321.03110994 -7.97116823 331.01784083 C-8.00293931 337.87064647 -8.01245752 344.72326057 -8.0046777 351.57613447 C-8.00084317 355.52714578 -8.00662668 359.47750854 -8.03890228 363.42840385 C-8.06829062 367.05250237 -8.06945513 370.67552173 -8.0490628 374.29967192 C-8.04536221 376.21752921 -8.0710718 378.13537545 -8.09815729 380.05304503 C-8.01091137 388.54637313 -6.1118971 395.07485107 -1.32366943 402.16062927 C4.80434879 408.15679341 10.59164483 410.3926305 19.09352112 410.36184692 C20.07749374 410.34829666 21.06146637 410.3347464 22.07525635 410.32078552 C23.12145645 410.31476822 24.16765656 410.30875092 25.24555969 410.30255127 C27.51543782 410.28936765 29.78529569 410.27224006 32.05511856 410.25163269 C36.89000598 410.2129926 41.72468588 410.21089274 46.55970573 410.20683289 C55.55728176 410.19910236 64.55415103 410.17760392 73.55133057 410.08885193 C79.81449924 410.02848029 86.07612979 410.01709672 92.33953476 410.03755188 C94.71969236 410.03627883 97.09991343 410.01709665 99.47977066 409.97926331 C120.43290591 409.65970777 120.43290591 409.65970777 127.37896729 415.94969177 C128.83477276 417.66714708 130.26837362 419.40373441 131.67633057 421.16062927 C133.47577435 422.70112048 135.30623225 424.20672302 137.17633057 425.66062927 C142.09169387 429.62258159 146.7405681 433.80023361 151.36383057 438.09422302 C153.69435748 440.27432564 153.69435748 440.27432564 156.67633057 442.16062927 C156.67633057 442.82062927 156.67633057 443.48062927 156.67633057 444.16062927 C137.78628795 444.25439092 118.89629306 444.32476356 100.00606537 444.36787796 C91.23347661 444.3884357 82.46103309 444.41642514 73.6885376 444.46238708 C66.03555429 444.50246416 58.38267624 444.52811132 50.72959089 444.53698325 C46.68353192 444.54216298 42.6377739 444.55419243 38.59181213 444.5835495 C34.77011985 444.61105008 30.9488475 444.61900584 27.12706566 444.61306 C25.08327703 444.61465558 23.03953229 444.6359945 20.99586487 444.65830994 C4.08844041 444.58445978 -11.34561386 440.45128445 -23.63616943 428.41062927 C-38.58806242 413.05155998 -40.47502681 395.97224382 -40.47084045 375.40307617 C-40.47414574 373.92148094 -40.47787269 372.4398866 -40.48198193 370.95829338 C-40.49193327 366.90895723 -40.49570751 362.8596359 -40.49837124 358.81028926 C-40.50229444 354.43461097 -40.51187077 350.0589442 -40.52058411 345.68327332 C-40.54028427 335.13187202 -40.55040316 324.58046986 -40.5593119 314.02905479 C-40.56370241 309.05498261 -40.56906695 304.08091148 -40.57430077 299.10684013 C-40.59130099 282.56652453 -40.60579676 266.02620957 -40.61304951 249.48588657 C-40.61495923 245.20030275 -40.6168796 240.91471893 -40.61883545 236.62913513 C-40.61931919 235.56404486 -40.61980293 234.49895459 -40.62030133 233.40158885 C-40.62860804 216.13429728 -40.65396118 198.86707483 -40.68641613 181.59981347 C-40.71949219 163.85711768 -40.73749847 146.11445705 -40.74069375 128.37173027 C-40.74285753 118.41555766 -40.75158782 108.45948609 -40.77715492 98.50334358 C-40.79886875 90.02854787 -40.80690867 81.55387778 -40.79718814 73.0790574 C-40.79264644 68.75763329 -40.7945224 64.43646837 -40.81394958 60.11507988 C-40.831602 56.15423376 -40.830567 52.19383555 -40.81505229 48.23298454 C-40.81267946 46.8050971 -40.8169829 45.37717846 -40.82888094 43.94933862 C-40.93592286 30.24809264 -37.99542871 20.22920369 -28.51116943 10.25437927 C-20.40240163 2.5379712 -10.938545 0.01629133 0 0 Z " fill="#FDFEFE" transform="translate(256.32366943359375,345.83937072753906)"/>
<path d="M0 0 C5.17868168 3.23667605 10.73737468 7.0187933 13 12.875 C13.64240291 17.65287165 13.62817732 21.53670919 11.5625 25.9375 C8.50816565 29.43881011 5.2729982 32.70065803 1.92578125 35.921875 C-0.05721758 37.73149143 -0.05721758 37.73149143 -1 39.875 C-1.66 39.875 -2.32 39.875 -3 39.875 C-3.23887939 40.43854187 -3.47775879 41.00208374 -3.72387695 41.58270264 C-5.27871277 44.3756512 -7.15872306 46.28805591 -9.41796875 48.55175781 C-10.33231689 49.47241028 -11.24666504 50.39306274 -12.1887207 51.34161377 C-13.18805904 52.33737326 -14.18765838 53.33287087 -15.1875 54.328125 C-16.2114745 55.35344703 -17.23515198 56.37906577 -18.25854492 57.40496826 C-20.4005717 59.54993952 -22.54616444 61.69126131 -24.69433594 63.83007812 C-27.45195846 66.5762777 -30.20046722 69.33139659 -32.94639587 72.08928299 C-35.05653945 74.20663883 -37.17140501 76.31922622 -39.28775024 78.43038177 C-40.30354783 79.4448426 -41.31785467 80.46079835 -42.33065796 81.4782486 C-43.74295287 82.89560124 -45.16231931 84.30589711 -46.58203125 85.71582031 C-47.38874268 86.52094055 -48.1954541 87.32606079 -49.02661133 88.15557861 C-51 89.875 -51 89.875 -53 89.875 C-53.3403125 90.74125 -53.3403125 90.74125 -53.6875 91.625 C-55.34761639 94.47091381 -57.39187957 95.87341921 -60 97.875 C-61.68136466 99.5268379 -63.34501959 101.19672845 -65 102.875 C-66.09949559 103.97618735 -67.19989981 105.07646794 -68.30102539 106.17602539 C-68.906492 106.781492 -69.51195862 107.38695862 -70.13577271 108.01077271 C-133.69897461 171.57397461 -133.69897461 171.57397461 -135.41110229 173.28463745 C-136.88114366 174.75603408 -138.34619075 176.23241583 -139.81079102 177.70922852 C-143.92211365 181.77653565 -146.84832131 183.61971609 -152.6875 184.3125 C-162.47278658 184.09964147 -170.24808407 172.86961963 -176.65625 166.37890625 C-177.76856593 165.26030343 -178.88140962 164.14222517 -179.99475098 163.02464294 C-182.90903352 160.09714137 -185.81768005 157.16411098 -188.72467041 154.22937012 C-193.37451257 149.53620595 -198.03116528 144.84982559 -202.69120789 140.16679192 C-204.30430129 138.54360187 -205.9138661 136.91697581 -207.52307129 135.28993225 C-212.31842949 130.45542112 -217.15612006 125.73604508 -222.33602905 121.3084259 C-224.54868268 119.40233792 -226.62517806 117.37934987 -228.69140625 115.31640625 C-229.49126953 114.51783203 -230.29113281 113.71925781 -231.11523438 112.89648438 C-232.32663086 111.67928711 -232.32663086 111.67928711 -233.5625 110.4375 C-234.37396484 109.62990234 -235.18542969 108.82230469 -236.02148438 107.99023438 C-252.29821675 91.68722802 -252.29821675 91.68722802 -253.4375 83.875 C-252.38381212 76.64971169 -246.1832357 71.57581333 -241 66.875 C-238.38467863 65.56733932 -236.29733841 65.55957236 -233.375 65.4375 C-232.37210937 65.37691406 -231.36921875 65.31632812 -230.3359375 65.25390625 C-222.67578268 66.68009433 -216.77045223 73.81420331 -211.46484375 79.1796875 C-210.44131554 80.20390305 -210.44131554 80.20390305 -209.39710999 81.24880981 C-207.96540101 82.68351907 -206.53610192 84.1206369 -205.10913086 85.56005859 C-202.94500674 87.74242996 -200.77299706 89.91670161 -198.59960938 92.08984375 C-197.20004884 93.49432149 -195.80094502 94.89925451 -194.40234375 96.3046875 C-193.76360825 96.94453583 -193.12487274 97.58438416 -192.46678162 98.24362183 C-188.69087504 102.05874244 -185.10845712 105.99186877 -181.59767151 110.05172729 C-179.54439421 112.39494017 -177.38858187 114.61594963 -175.1875 116.8203125 C-174.33929688 117.66980469 -173.49109375 118.51929688 -172.6171875 119.39453125 C-171.75351562 120.25433594 -170.88984375 121.11414063 -170 122 C-169.13632812 122.86753906 -168.27265625 123.73507812 -167.3828125 124.62890625 C-162.7444707 129.2601989 -158.04701196 133.69201454 -153 137.875 C-149.78075533 136.45728953 -147.62931175 134.75362547 -145.14933777 132.27157593 C-144.39668137 131.52311401 -143.64402496 130.7746521 -142.86856079 130.00350952 C-142.05237274 129.18170197 -141.23618469 128.35989441 -140.39526367 127.51318359 C-139.09452156 126.215289 -139.09452156 126.215289 -137.76750183 124.89117432 C-135.39171718 122.51845976 -133.0204918 120.14136003 -130.65132689 117.76204634 C-128.16483307 115.26675099 -125.6730504 112.77674728 -123.18196106 110.28604126 C-118.99476115 106.09790479 -114.81145017 101.90591563 -110.63061523 97.71142578 C-105.81249249 92.87762383 -100.98921026 88.04902116 -96.1628744 83.2234205 C-91.00996727 78.07119207 -85.86088925 72.91514965 -80.71290421 67.75800371 C-79.23761706 66.28059609 -77.76163054 64.80389031 -76.28548241 63.32734299 C-73.5182899 60.55894757 -70.75539157 57.78629013 -67.99291992 55.01318359 C-67.18280457 54.20352142 -66.37268921 53.39385925 -65.5380249 52.55966187 C-61.36323007 48.36147317 -57.35559591 44.08017592 -53.4913702 39.59445572 C-51.72798604 37.56138507 -49.88798626 35.62317648 -47.99584961 33.7097168 C-47.29499741 32.99925705 -46.5941452 32.2887973 -45.87205505 31.55680847 C-45.13955032 30.82005386 -44.40704559 30.08329926 -43.65234375 29.32421875 C-42.48995934 28.15328423 -42.48995934 28.15328423 -41.30409241 26.95869446 C-39.67766758 25.32288852 -38.04983519 23.68848097 -36.4206543 22.05541992 C-33.93400632 19.55899258 -31.45822834 17.05209558 -28.98242188 14.54492188 C-27.39388848 12.94986395 -25.80471767 11.35544052 -24.21484375 9.76171875 C-23.48031479 9.01484299 -22.74578583 8.26796722 -21.98899841 7.49845886 C-15.48851926 1.02594098 -9.45189036 -3.54445888 0 0 Z " fill="#FDFEFE" transform="translate(685,197.125)"/>
<path d="M0 0 C2.22920721 1.43306178 3.99685739 2.60709555 5.625 4.6875 C5.625 5.3475 5.625 6.0075 5.625 6.6875 C6.52798828 7.09162109 6.52798828 7.09162109 7.44921875 7.50390625 C9.64412064 8.69790135 10.79397551 9.77320519 12.4375 11.625 C32.85996459 32.52543716 62.93107512 45.27564705 91.9375 45.9375 C127.0469321 45.96232402 154.40760837 30.89797119 179.625 7.6875 C181.11999053 6.34855225 182.61965382 5.01479448 184.125 3.6875 C184.7540625 3.130625 185.383125 2.57375 186.03125 2 C189.67385526 -0.99979256 193.24148075 -0.64145046 197.796875 -0.59375 C203.08656533 -0.06770345 206.11216508 2.29409942 210 5.875 C212.50695776 10.21396535 213.41372363 14.61099048 212.15087891 19.53686523 C210.43026278 24.71543666 207.90412938 28.2469279 204.125 32.125 C203.59455078 32.6828418 203.06410156 33.24068359 202.51757812 33.81542969 C197.58356182 38.91078421 192.25976407 43.38371981 186.625 47.6875 C185.70332031 48.42484375 184.78164063 49.1621875 183.83203125 49.921875 C153.80636364 73.42374708 114.36498214 83.23236251 76.6328125 79.22265625 C39.08154262 74.35812144 2.3664394 55.78003126 -21.5625 26.16796875 C-24.5240789 22.1149459 -25.96111436 19.07141202 -25.81640625 13.91015625 C-24.80284096 8.80645138 -21.56935822 4.63629909 -17.734375 1.23046875 C-12.07815567 -2.50950805 -6.0971814 -2.3711261 0 0 Z " fill="#FDFDFE" transform="translate(418.375,701.3125)"/>
<path d="M0 0 C7.67964549 5.59760827 13.01787933 11.52185933 15 21 C15.92131655 29.47309157 14.27341668 37.26820882 9.38671875 44.33203125 C3.77993904 51.03281675 -2.41811694 55.29719632 -11.2265625 56.40625 C-21.1534416 56.68009494 -28.54037703 54.63387929 -36.1953125 48.13671875 C-42.47871141 41.57727094 -44.13050813 34.92195133 -44.4375 26 C-44.22252383 16.93191436 -41.45256783 10.45256783 -35 4 C-24.92310916 -3.51072609 -11.51265596 -6.3712772 0 0 Z " fill="#FDFDFE" transform="translate(450,615)"/>
<path d="M0 0 C6.05851485 4.13080558 10.54669651 9.79633952 12.875 16.78125 C13.60400099 26.53944899 14.14592028 35.66414637 7.875 43.78125 C2.25902061 50.20662775 -4.62658731 54.15610747 -13.1484375 55.125 C-22.9702609 55.42188131 -29.48360311 52.99115576 -37.07421875 46.81640625 C-43.08810371 40.84834137 -45.2480785 33.9309788 -45.4375 25.65625 C-45.37757162 18.03678475 -43.38465406 12.4636492 -39.4375 6.03125 C-28.29085621 -4.81413314 -13.81420505 -7.92285289 0 0 Z " fill="#FDFEFE" transform="translate(605.125,616.21875)"/>
<path d="M0 0 C0 3.59857954 -0.95830515 5.09451118 -3 8 C-3.66 8 -4.32 8 -5 8 C-5.226875 8.5775 -5.45375 9.155 -5.6875 9.75 C-7.68330645 13.17138248 -10.31560673 15.52265389 -14.1640625 16.61328125 C-14.76992188 16.74089844 -15.37578125 16.86851562 -16 17 C-11.01595832 10.96668638 -5.58084697 5.4815829 0 0 Z " fill="#2C7ADA" transform="translate(569,350)"/>
<path d="M0 0 C0 4.92745075 -3.68086383 7.60021193 -7 11 C-9.60508221 13.41026736 -12.27081874 15.7315896 -15 18 C-15.66 17.67 -16.32 17.34 -17 17 C-11.39 11.39 -5.78 5.78 0 0 Z " fill="#0562D2" transform="translate(677,243)"/>
<path d="M0 0 C-1.07543783 0.98783194 -2.16073217 1.96493943 -3.25 2.9375 C-4.15492188 3.75541016 -4.15492188 3.75541016 -5.078125 4.58984375 C-7.08467305 6.06212799 -8.57002449 6.57529189 -11 7 C-3.96875 -1.984375 -3.96875 -1.984375 0 0 Z " fill="#2075D7" transform="translate(564,360)"/>
<path d="M0 0 C0.66 0.33 1.32 0.66 2 1 C0.90220176 2.15193623 -0.20349446 3.29634937 -1.3125 4.4375 C-1.92738281 5.07558594 -2.54226563 5.71367188 -3.17578125 6.37109375 C-5 8 -5 8 -8 9 C-8 8.01 -8 7.02 -8 6 C-6.04690112 4.59886384 -4.04291182 3.26660533 -2 2 C-1.34 1.34 -0.68 0.68 0 0 Z " fill="#0B63D2" transform="translate(617,780)"/>
<path d="M0 0 C0.99 0.33 1.98 0.66 3 1 C-0.19990508 3.74277578 -3.00499382 5.6302836 -7 7 C-4.78071806 4.09197539 -3.07030857 2.04687238 0 0 Z " fill="#0964D2" transform="translate(643,518)"/>
<path d="M0 0 C0.33 0.99 0.66 1.98 1 3 C-1.97 5.475 -1.97 5.475 -5 8 C-5.66 7.67 -6.32 7.34 -7 7 C-4.69 4.69 -2.38 2.38 0 0 Z " fill="#0660D1" transform="translate(795,770)"/>
</svg>
